<?xml version="1.0" encoding="utf-8"?>
<!-- Generator: Adobe Illustrator 19.0.1, SVG Export Plug-In . SVG Version: 6.00 Build 0)  -->
<svg version="1.1"
	 id="Layer_1" xmlns:cc="http://creativecommons.org/ns#" xmlns:rdf="http://www.w3.org/1999/02/22-rdf-syntax-ns#" xmlns:dc="http://purl.org/dc/elements/1.1/"
	 xmlns="http://www.w3.org/2000/svg" xmlns:xlink="http://www.w3.org/1999/xlink" x="0px" y="0px" viewBox="446 556 300 300"
	 style="enable-background:new 446 556 300 300;" xml:space="preserve">
<style type="text/css">
	.st0{fill:#2C041D;}
	.st1{fill:#7E375B;}
	.st2{fill:#FFFFFF;}
</style>
<g>
	<g>
		<path class="st0" d="M596,850.1c-38.5,0-74.7-15-101.9-42.2c-27.2-27.2-42.2-63.4-42.2-101.9c0-38.5,15-74.7,42.2-101.9
			c27.2-27.2,63.4-42.2,101.9-42.2c38.5,0,74.7,15,101.9,42.2s42.2,63.4,42.2,101.9c0,38.5-15,74.7-42.2,101.9
			C670.7,835.1,634.5,850.1,596,850.1z"/>
		<g>
			<path class="st1" d="M596,567.8c76.3,0,138.2,61.9,138.2,138.2S672.3,844.2,596,844.2S457.8,782.3,457.8,706
				S519.7,567.8,596,567.8 M596,556c-20.2,0-39.9,4-58.4,11.8c-17.9,7.6-33.9,18.4-47.7,32.1c-13.8,13.8-24.6,29.8-32.1,47.7
				C450,666.1,446,685.8,446,706s4,39.9,11.8,58.4c7.6,17.9,18.4,33.9,32.1,47.7c13.8,13.8,29.8,24.6,47.7,32.1
				C556.1,852,575.8,856,596,856s39.9-4,58.4-11.8c17.9-7.6,33.9-18.4,47.7-32.1c13.8-13.8,24.6-29.8,32.1-47.7
				C742,745.9,746,726.2,746,706s-4-39.9-11.8-58.4c-7.6-17.9-18.4-33.9-32.1-47.7c-13.8-13.8-29.8-24.6-47.7-32.1
				C635.9,560,616.2,556,596,556L596,556z"/>
		</g>
	</g>
	<g>
		<g>
			<path class="st2" d="M555.7,668.5c-10.2,0-18.5-8.3-18.5-18.5c0-10.2,8.3-18.5,18.5-18.5c10.2,0,18.5,8.3,18.5,18.5
				C574.3,660.2,565.9,668.5,555.7,668.5z M555.7,636.2c-7.6,0-13.7,6.2-13.7,13.7c0,7.6,6.2,13.7,13.7,13.7s13.7-6.2,13.7-13.7
				C569.5,642.4,563.3,636.2,555.7,636.2z"/>
		</g>
		<g>
			<path class="st2" d="M636.3,668.5c-10.2,0-18.5-8.3-18.5-18.5c0-10.2,8.3-18.5,18.5-18.5c10.2,0,18.5,8.3,18.5,18.5
				C654.8,660.2,646.5,668.5,636.3,668.5z M636.3,636.2c-7.6,0-13.7,6.2-13.7,13.7c0,7.6,6.2,13.7,13.7,13.7
				c7.6,0,13.7-6.2,13.7-13.7C650,642.4,643.9,636.2,636.3,636.2z"/>
		</g>
		<g>
			<path class="st2" d="M557.3,780.6c-10.2,0-18.5-8.3-18.5-18.5c0-10.2,8.3-18.5,18.5-18.5s18.5,8.3,18.5,18.5
				C575.9,772.2,567.6,780.6,557.3,780.6z M557.3,748.3c-7.6,0-13.7,6.2-13.7,13.7c0,7.6,6.2,13.7,13.7,13.7s13.7-6.2,13.7-13.7
				C571.1,754.4,564.9,748.3,557.3,748.3z"/>
		</g>
		<g>
			<path class="st2" d="M559.7,746.8l-4.8-0.4v-80.2h4.8v62.1c3.2-8.4,7.4-14,12.5-17.2c7.2-4.4,14.1-5,21.4-5.5
				c6.8-0.5,13.8-1.1,21.6-5.1c12.2-6.2,20.1-20.3,18.8-33.5l4.8-0.5c1.4,15.1-7.5,31.2-21.4,38.3c-8.6,4.4-16.5,5-23.4,5.6
				c-7,0.6-13,1-19.2,4.9C567.9,719.3,562.8,730,559.7,746.8z"/>
		</g>
	</g>
</g>
</svg>
