<?xml version="1.0" encoding="utf-8"?>
<!-- Generator: Adobe Illustrator 19.0.1, SVG Export Plug-In . SVG Version: 6.00 Build 0)  -->
<svg version="1.1"
	 id="Layer_1" xmlns:cc="http://creativecommons.org/ns#" xmlns:rdf="http://www.w3.org/1999/02/22-rdf-syntax-ns#" xmlns:dc="http://purl.org/dc/elements/1.1/"
	 xmlns="http://www.w3.org/2000/svg" xmlns:xlink="http://www.w3.org/1999/xlink" x="0px" y="0px" viewBox="352 -240 500 500"
	 style="enable-background:new 352 -240 500 500;" xml:space="preserve">
<style type="text/css">
	.st0{fill:#2C041D;}
	.st1{fill:#7E375B;}
	.st2{fill:#FFFFFF;}
</style>
<g>
	<g>
		<path class="st0" d="M602,250.1c-64.1,0-124.4-25-169.8-70.3C386.8,134.4,361.9,74.1,361.9,10c0-64.1,25-124.4,70.3-169.8
			c45.4-45.4,105.7-70.3,169.8-70.3c64.1,0,124.4,25,169.8,70.3c45.4,45.4,70.3,105.7,70.3,169.8c0,64.1-25,124.4-70.3,169.8
			C726.4,225.2,666.1,250.1,602,250.1z"/>
		<g>
			<path class="st1" d="M602-220.3c127.2,0,230.3,103.1,230.3,230.3S729.2,240.3,602,240.3S371.7,137.2,371.7,10
				S474.8-220.3,602-220.3 M602-240c-33.7,0-66.5,6.6-97.3,19.7c-29.8,12.6-56.5,30.6-79.5,53.6c-23,23-41,49.7-53.6,79.5
				C358.6-56.5,352-23.7,352,10s6.6,66.5,19.7,97.3c12.6,29.8,30.6,56.5,53.6,79.5c23,23,49.7,41,79.5,53.6
				c30.8,13,63.6,19.7,97.3,19.7s66.5-6.6,97.3-19.7c29.8-12.6,56.5-30.6,79.5-53.6c23-23,41-49.7,53.6-79.5
				C845.4,76.5,852,43.7,852,10s-6.6-66.5-19.7-97.3c-12.6-29.8-30.6-56.5-53.6-79.5c-23-23-49.7-41-79.5-53.6
				C668.5-233.4,635.7-240,602-240L602-240z"/>
		</g>
	</g>
	<g>
		<g>
			<path class="st2" d="M534.9-52.5c-17,0-30.9-13.9-30.9-30.9s13.9-30.9,30.9-30.9s30.9,13.9,30.9,30.9S551.9-52.5,534.9-52.5z
				 M534.9-106.3c-12.6,0-22.9,10.3-22.9,22.9s10.3,22.9,22.9,22.9s22.9-10.3,22.9-22.9S547.5-106.3,534.9-106.3z"/>
		</g>
		<g>
			<path class="st2" d="M669.1-52.5c-17,0-30.9-13.9-30.9-30.9s13.9-30.9,30.9-30.9S700-100.4,700-83.4S686.2-52.5,669.1-52.5z
				 M669.1-106.3c-12.6,0-22.9,10.3-22.9,22.9s10.3,22.9,22.9,22.9S692-70.7,692-83.4S681.8-106.3,669.1-106.3z"/>
		</g>
		<g>
			<path class="st2" d="M537.6,134.3c-17,0-30.9-13.9-30.9-30.9c0-17,13.9-30.9,30.9-30.9s30.9,13.9,30.9,30.9
				C568.5,120.4,554.6,134.3,537.6,134.3z M537.6,80.5c-12.6,0-22.9,10.3-22.9,22.9c0,12.6,10.3,22.9,22.9,22.9s22.9-10.3,22.9-22.9
				C560.5,90.7,550.2,80.5,537.6,80.5z"/>
		</g>
		<g>
			<path class="st2" d="M541.5,77.9l-7.9-0.7V-56.5h8V47c5.4-13.9,12.3-23.4,20.8-28.6c12-7.3,23.4-8.3,35.6-9.2
				c11.3-0.9,23.1-1.9,36-8.5c20.3-10.3,33.4-33.8,31.3-55.9l8-0.8c2.4,25.2-12.6,52-35.6,63.8c-14.4,7.3-27.5,8.4-39,9.3
				c-11.6,0.9-21.7,1.7-32,8.1C555.1,32.2,546.7,50,541.5,77.9z"/>
		</g>
	</g>
</g>
</svg>
