<?xml version="1.0" encoding="utf-8"?>
<!-- Generator: Adobe Illustrator 19.0.1, SVG Export Plug-In . SVG Version: 6.00 Build 0)  -->
<svg version="1.1" id="Layer_1" xmlns="http://www.w3.org/2000/svg" xmlns:xlink="http://www.w3.org/1999/xlink" x="0px" y="0px"
	 viewBox="-160 277 500 500" style="enable-background:new -160 277 500 500;" xml:space="preserve">
<style type="text/css">
	.st0{fill:#2C041D;}
	.st1{fill:#7E375B;}
	.st2{fill:#FFFFFF;}
</style>
<g>
	<path class="st0" d="M90,671.1c-38.5,0-74.7-15-101.9-42.2c-27.2-27.2-42.2-63.4-42.2-101.9c0-38.5,15-74.7,42.2-101.9
		c27.2-27.2,63.4-42.2,101.9-42.2c38.5,0,74.7,15,101.9,42.2s42.2,63.4,42.2,101.9c0,38.5-15,74.7-42.2,101.9
		C164.7,656.1,128.5,671.1,90,671.1z"/>
	<g>
		<path class="st1" d="M90,388.8c76.3,0,138.2,61.9,138.2,138.2S166.3,665.2,90,665.2S-48.2,603.3-48.2,527S13.7,388.8,90,388.8
			 M90,377c-20.2,0-39.9,4-58.4,11.8c-17.9,7.6-33.9,18.4-47.7,32.1c-13.8,13.8-24.6,29.8-32.1,47.7C-56,487.1-60,506.8-60,527
			s4,39.9,11.8,58.4c7.6,17.9,18.4,33.9,32.1,47.7c13.8,13.8,29.8,24.6,47.7,32.1C50.1,673,69.8,677,90,677s39.9-4,58.4-11.8
			c17.9-7.6,33.9-18.4,47.7-32.1c13.8-13.8,24.6-29.8,32.1-47.7C236,566.9,240,547.2,240,527s-4-39.9-11.8-58.4
			c-7.6-17.9-18.4-33.9-32.1-47.7c-13.8-13.8-29.8-24.6-47.7-32.1C129.9,381,110.2,377,90,377L90,377z"/>
	</g>
</g>
<path class="st2" d="M112.9,499.7c-7.2,1.8-15.8,3.6-23.2,3.4c-4.4-0.3-8.8-1.3-12.9-2.1c-27.4-6.5-51.9-8.8-82.4-1.8l2.1,12.9
	c1.8,0,5.2,0.8,5.2,4.4c1,29.2,8.8,43.1,36.4,42.3c34.1-0.8,43.1-28.1,44.9-38.7c1-5.7,3.9-6.2,7-6.2c5.7-0.3,6.5,4.1,7.2,6.5
	c11.6,29.7,18.9,36.4,43.4,38.5c37.4,3.4,33.1-24.5,38.2-40.5c1-3.1,2.1-4.6,5.4-4.6l1.5-12.9C164,496.3,141.5,492.4,112.9,499.7z
	 M3.9,507.4c-2.6,0-4.9-0.5-4.9-1.3s2.1-1.3,4.9-1.3c2.6,0,4.9,0.5,4.9,1.3C8.8,506.9,6.7,507.4,3.9,507.4z M73.1,527
	c-5.2,15.5-13.4,26.6-34.3,27.1c-20.9,0-26.9-3.9-29.7-28.1c0-16.3-1-25.8,30-25.8C59.7,502.5,81.3,502.3,73.1,527z M171.7,526.3
	c-2.8,24.3-8.8,28.1-29.7,28.1c-21.2-0.5-29.2-11.9-34.3-27.1c-8.5-24.8,13.4-24.5,34.3-26.6C172.8,500.5,171.7,510,171.7,526.3z
	 M176.9,508.7c-2.6,0-4.9-0.5-4.9-1.3s2.1-1.3,4.9-1.3s4.9,0.5,4.9,1.3C181.8,508.2,179.5,508.7,176.9,508.7z"/>
</svg>
